<?xml version="1.0" encoding="UTF-8" standalone="no"?>
<svg
   xmlns:dc="http://purl.org/dc/elements/1.1/"
   xmlns:cc="http://creativecommons.org/ns#"
   xmlns:rdf="http://www.w3.org/1999/02/22-rdf-syntax-ns#"
   xmlns:svg="http://www.w3.org/2000/svg"
   xmlns="http://www.w3.org/2000/svg"
   xmlns:sodipodi="http://sodipodi.sourceforge.net/DTD/sodipodi-0.dtd"
   xmlns:inkscape="http://www.inkscape.org/namespaces/inkscape"
   viewBox="0 0 512 512"
   version="1.1"
   id="svg40"
   sodipodi:docname="paste_grey.svg"
   inkscape:version="0.92.5 (2060ec1f9f, 2020-04-08)">
  <metadata
     id="metadata46">
    <rdf:RDF>
      <cc:Work
         rdf:about="">
        <dc:format>image/svg+xml</dc:format>
        <dc:type
           rdf:resource="http://purl.org/dc/dcmitype/StillImage" />
      </cc:Work>
    </rdf:RDF>
  </metadata>
  <defs
     id="defs44" />
  <sodipodi:namedview
     pagecolor="#ffffff"
     bordercolor="#666666"
     borderopacity="1"
     objecttolerance="10"
     gridtolerance="10"
     guidetolerance="10"
     inkscape:pageopacity="0"
     inkscape:pageshadow="2"
     inkscape:window-width="1016"
     inkscape:window-height="865"
     id="namedview42"
     showgrid="false"
     inkscape:zoom="0.4609375"
     inkscape:cx="-24.732127"
     inkscape:cy="256"
     inkscape:window-x="0"
     inkscape:window-y="0"
     inkscape:window-maximized="0"
     inkscape:current-layer="svg40" />
  <!--! Font Awesome Free 6.4.2 by @fontawesome - https://fontawesome.com License - https://fontawesome.com/license/free (Icons: CC BY 4.0, Fonts: SIL OFL 1.1, Code: MIT License) Copyright 2023 Fonticons, Inc. -->
  <path
     d="M80 96v16c0 17.7 14.3 32 32 32h60.8c16.6-28.7 47.6-48 83.2-48h62c-7.1-27.6-32.2-48-62-48H215.4C211.6 20.9 188.2 0 160 0s-51.6 20.9-55.4 48H64C28.7 48 0 76.7 0 112V384c0 35.3 28.7 64 64 64h96V400H64c-8.8 0-16-7.2-16-16V112c0-8.8 7.2-16 16-16H80zm64-40a16 16 0 1 1 32 0 16 16 0 1 1 -32 0zM256 464c-8.8 0-16-7.2-16-16V192c0-8.8 7.2-16 16-16H384v48c0 17.7 14.3 32 32 32h48V448c0 8.8-7.2 16-16 16H256zm192 48c35.3 0 64-28.7 64-64V227.9c0-12.7-5.1-24.9-14.1-33.9l-51.9-51.9c-9-9-21.2-14.1-33.9-14.1H256c-35.3 0-64 28.7-64 64V448c0 35.3 28.7 64 64 64H448z"
     id="path38"
     style="fill:#3e3f3a;fill-opacity:1" />
</svg>
