<?xml version="1.0" encoding="UTF-8" standalone="no"?>
<svg
   xmlns:dc="http://purl.org/dc/elements/1.1/"
   xmlns:cc="http://creativecommons.org/ns#"
   xmlns:rdf="http://www.w3.org/1999/02/22-rdf-syntax-ns#"
   xmlns:svg="http://www.w3.org/2000/svg"
   xmlns="http://www.w3.org/2000/svg"
   viewBox="0 0 512 512"
   version="1.1"
   id="svg4">
  <metadata
     id="metadata10">
    <rdf:RDF>
      <cc:Work
         rdf:about="">
        <dc:format>image/svg+xml</dc:format>
        <dc:type
           rdf:resource="http://purl.org/dc/dcmitype/StillImage" />
        <dc:title></dc:title>
      </cc:Work>
    </rdf:RDF>
  </metadata>
  <defs
     id="defs8" />
  <!--! Font Awesome Free 6.4.2 by @fontawesome - https://fontawesome.com License - https://fontawesome.com/license/free (Icons: CC BY 4.0, Fonts: SIL OFL 1.1, Code: MIT License) Copyright 2023 Fonticons, Inc. -->
  <g
     id="layer1"
     style="display:inline;fill:#ffffff">
    <path
       style="fill:#ffffff"
       d="M 64,0 C 28.7,0 0,28.7 0,64 v 234 c 0,35.3 28.7,64 64,64 h 86 18 161.53516 l -29.74024,29.74023 a 24.0024,24.0024 0 1 0 33.94141,33.94141 l 70.69922,-70.69922 0.0117,-0.0117 a 24.0024,24.0024 0 0 0 1.09375,-1.20898 24.0024,24.0024 0 0 0 0.51562,-0.57031 24.0024,24.0024 0 0 0 0.006,-0.008 24.0024,24.0024 0 0 0 1.41797,-1.92382 24.0024,24.0024 0 0 0 0.006,-0.008 24.0024,24.0024 0 0 0 1.21875,-2.05468 24.0024,24.0024 0 0 0 0.004,-0.008 24.0024,24.0024 0 0 0 1.00782,-2.16797 24.0024,24.0024 0 0 0 0.004,-0.008 24.0024,24.0024 0 0 0 0.78516,-2.25781 24.0024,24.0024 0 0 0 0.55859,-2.33398 24.0024,24.0024 0 0 0 0.002,-0.008 24.0024,24.0024 0 0 0 0.32226,-2.36914 24.0024,24.0024 0 0 0 -0.0703,-4.79101 24.0024,24.0024 0 0 0 -1.02148,-4.6836 24.0024,24.0024 0 0 0 -0.002,-0.008 24.0024,24.0024 0 0 0 -3.21289,-6.4043 24.0024,24.0024 0 0 0 -1.59375,-2.00976 24.0024,24.0024 0 0 0 -1.04101,-1.11914 L 333.7368,250.31728 a 24.0024,24.0024 0 0 0 -17.22071,-7.27148 24.0024,24.0024 0 0 0 -16.7207,41.21289 L 329.53516,314 H 168 150 64 c -8.800001,0 -16,-7.2 -16,-16 V 64 c 0,-8.8 7.2,-16 16,-16 h 128 v 48 c 0,6.71493 2.06093,12.93705 5.58203,18.07812 C 207.5276,107.70927 219.33419,104 232,104 h 88 V 99.900391 C 320,87.200391 314.90039,75 305.90039,66 L 254,14.099609 C 245,5.0996102 232.79961,0 220.09961,0 Z m 192,128 c -35.3,0 -64,28.7 -64,64 v 74 h 48 v -74 c 0,-8.8 7.2,-16 16,-16 h 128 v 48 c 0,17.7 14.3,32 32,32 h 48 v 192 c 0,8.8 -7.2,16 -16,16 H 256 c -8.8,0 -16,-7.2 -16,-16 v -38 h -48 v 38 c 0,35.3 28.7,64 64,64 h 192 c 35.3,0 64,-28.7 64,-64 V 227.90039 C 512,215.20039 506.90039,203 497.90039,194 L 446,142.09961 C 437,133.09961 424.79961,128 412.09961,128 Z m -144.96094,38.29102 a 15.0015,15.0015 0 1 0 0,30 H 168 V 168 c 0,-0.57317 0.0279,-1.13939 0.043,-1.70898 z m 0,60.91992 a 15.0015,15.0015 0 1 0 0,30 H 168 v -30 z"
       id="path2-9" />
  </g>
</svg>
