<?xml version="1.0" encoding="UTF-8" standalone="no"?>
<svg
   xmlns:dc="http://purl.org/dc/elements/1.1/"
   xmlns:cc="http://creativecommons.org/ns#"
   xmlns:rdf="http://www.w3.org/1999/02/22-rdf-syntax-ns#"
   xmlns:svg="http://www.w3.org/2000/svg"
   xmlns="http://www.w3.org/2000/svg"
   viewBox="0 0 512 512"
   version="1.1"
   id="svg4">
  <metadata
     id="metadata10">
    <rdf:RDF>
      <cc:Work
         rdf:about="">
        <dc:format>image/svg+xml</dc:format>
        <dc:type
           rdf:resource="http://purl.org/dc/dcmitype/StillImage" />
        <dc:title></dc:title>
      </cc:Work>
    </rdf:RDF>
  </metadata>
  <defs
     id="defs8" />
  <!--! Font Awesome Free 6.4.2 by @fontawesome - https://fontawesome.com License - https://fontawesome.com/license/free (Icons: CC BY 4.0, Fonts: SIL OFL 1.1, Code: MIT License) Copyright 2023 Fonticons, Inc. -->
  <path
     d="M 128 68 C 92.699998 68 64 96.7 64 132 L 64 448 C 64 483.3 92.699998 512 128 512 L 384 512 C 419.3 512 448 483.3 448 448 L 448 237.27734 L 400 237.27734 L 400 448 C 400 456.8 392.8 464 384 464 L 128 464 C 119.2 464 112 456.8 112 448 L 112 132 C 112 123.2 119.20069 116.10999 128 116 L 190.64844 116 L 190.64844 68 L 128 68 z M 184 284 C 170.7 284 160 294.7 160 308 C 160 321.3 170.7 332 184 332 L 328 332 C 341.3 332 352 321.3 352 308 C 352 294.7 341.3 284 328 284 L 184 284 z M 184 372 C 170.7 372 160 382.7 160 396 C 160 409.3 170.7 420 184 420 L 328 420 C 341.3 420 352 409.3 352 396 C 352 382.7 341.3 372 328 372 L 184 372 z "
     id="path871"
     style="fill:#ffffff;fill-opacity:1" />
  <g
     id="layer2"
     style="display:inline;fill:#ffffff;fill-opacity:1" />
  <g
     id="layer3"
     style="display:inline;fill:#ffffff;fill-opacity:1">
    <g
       id="layer1"
       style="display:inline;fill:#ffffff;fill-opacity:1"
       transform="rotate(-45,24.997707,141.05091)">
      <path
         style="fill:#ffffff;fill-opacity:1"
         d="m 168,362 h 161.53516 l -29.74024,29.74023 c -9.59059,9.33441 -9.69464,24.70932 -0.23127,34.17268 9.46336,9.46337 24.83827,9.35932 34.17268,-0.23127 l 70.69922,-70.69922 0.0117,-0.0117 c 0.37817,-0.39049 0.74296,-0.79372 1.09375,-1.20898 0.17491,-0.18734 0.3468,-0.37747 0.51562,-0.57031 l 0.006,-0.008 c 0.50431,-0.61733 0.97755,-1.2594 1.41797,-1.92382 l 0.006,-0.008 c 0.4401,-0.66424 0.84686,-1.34998 1.21875,-2.05468 l 0.004,-0.008 c 0.37174,-0.70547 0.7081,-1.42902 1.00782,-2.16797 l 0.004,-0.008 c 0.29906,-0.7391 0.5611,-1.49263 0.78516,-2.25781 0.225,-0.76819 0.41143,-1.54716 0.55859,-2.33398 l 0.002,-0.008 c 0.14671,-0.78387 0.25426,-1.57456 0.32226,-2.36914 0.13643,-1.59535 0.11288,-3.20035 -0.0703,-4.79101 -0.18335,-1.59137 -0.52555,-3.1604 -1.02148,-4.6836 l -0.002,-0.008 c -0.74451,-2.28349 -1.82754,-4.44231 -3.21289,-6.4043 -0.49505,-0.69785 -1.02706,-1.36872 -1.59375,-2.00976 -0.33503,-0.384 -0.68221,-0.75724 -1.04101,-1.11914 L 333.7368,250.31728 c -4.52178,-4.65131 -10.73371,-7.27432 -17.22071,-7.27148 -21.54303,0.009 -32.16775,26.19653 -16.7207,41.21289 L 329.53516,314 H 168 Z"
         id="path2-9" />
    </g>
  </g>
</svg>
